<svg width="123" height="25" viewBox="0 0 123 25" fill="none" xmlns="http://www.w3.org/2000/svg">
<g clip-path="url(#clip0_199_1599)">
<path fill-rule="evenodd" clip-rule="evenodd" d="M28.053 1.42456C28.2884 1.65008 28.4745 1.92098 28.5998 2.22051C28.7251 2.52004 28.787 2.84183 28.7816 3.16598V3.22857C28.7789 3.54428 28.7132 3.85634 28.5881 4.1468C28.4631 4.43726 28.2812 4.70038 28.053 4.92101C27.8252 5.15391 27.5514 5.33807 27.2487 5.4621C26.9461 5.58612 26.6209 5.64738 26.2934 5.64207C25.6395 5.64577 25.0105 5.39465 24.5423 4.94301C24.0741 4.49136 23.8043 3.87549 23.7913 3.22857V3.16598C23.786 2.84183 23.8479 2.52004 23.9732 2.22051C24.0985 1.92098 24.2846 1.65008 24.52 1.42456C24.751 1.19204 25.0273 1.00827 25.3321 0.884336C25.6369 0.760406 25.9639 0.698891 26.2934 0.703504C26.6209 0.698195 26.9461 0.759447 27.2487 0.883472C27.5514 1.0075 27.8252 1.19166 28.053 1.42456Z" fill="#EB5C60"/>
<path fill-rule="evenodd" clip-rule="evenodd" d="M117.342 20.4849V24.4984H105.066V3.16596H110.056V20.4849H117.342ZM93.3117 3.16596L101.945 24.4984H97.2022L95.5113 19.9271H86.6855L84.9808 24.4984H80.3479L88.9538 3.16596H93.3117ZM88.0602 16.213H94.1366L91.1121 8.0501L88.0602 16.213ZM72.3331 3.16596H77.2685V24.4984H73.1717L62.435 11.5602V24.4984H57.4859V3.16596H61.6102L72.3331 16.1042V3.16596ZM44.6459 7.00253C43.6659 6.98964 42.6918 7.15568 41.7727 7.4923C40.9402 7.80159 40.1818 8.27879 39.5456 8.8936C38.9117 9.50262 38.4192 10.2407 38.1021 11.0568C37.759 11.942 37.591 12.8842 37.6072 13.8322C37.5906 14.7757 37.7587 15.7136 38.1021 16.594C38.4264 17.4103 38.9179 18.1514 39.5456 18.7707C40.1705 19.3897 40.9199 19.8718 41.7452 20.1856C42.6545 20.5232 43.6197 20.6893 44.5909 20.6754C45.5687 20.6764 46.5399 20.5155 47.4641 20.1992C47.8092 20.0793 48.1447 19.9338 48.4676 19.7639V13.5057H53.018V22.1447C51.7853 23.045 50.4037 23.7264 48.9351 24.1583C47.4352 24.6221 45.8735 24.8605 44.3022 24.8657C42.7065 24.8824 41.1216 24.6056 39.6281 24.0494C38.2364 23.5411 36.9607 22.7641 35.875 21.7638C34.8278 20.7667 33.9914 19.5736 33.4142 18.2537C32.8251 16.8534 32.5305 15.3489 32.5481 13.8322C32.5458 13.1946 32.5936 12.5577 32.6911 11.9275C33.1566 11.5855 33.5959 11.2099 34.0054 10.8037C35.6306 9.23403 36.6927 7.18156 37.0298 4.95908C37.8371 4.39524 38.7151 3.93789 39.6418 3.59859C41.1557 3.04838 42.7583 2.77636 44.3709 2.79591C46.1377 2.79062 47.8902 3.10889 49.5399 3.73464C50.0202 3.90975 50.4885 4.11515 50.9422 4.34958C51.0989 4.43121 51.3876 4.59991 51.8083 4.85296V9.41059C51.128 8.91386 50.4111 8.46819 49.6637 8.07731C49.172 7.84515 48.6615 7.65402 48.1377 7.50591C47.5784 7.34914 47.0088 7.23094 46.433 7.15218C45.8419 7.05826 45.2445 7.00824 44.6459 7.00253ZM23.791 13.6825C24.6259 13.867 25.4789 13.9582 26.3343 13.9546C27.1566 13.9572 27.9769 13.8732 28.7814 13.7043V24.4984H23.791V13.6825ZM20.1755 18.4224C20.1601 19.5007 19.8667 20.5571 19.3231 21.4917C18.6862 22.6418 17.6896 23.5564 16.4829 24.0984C15.0838 24.7562 13.5343 25.0377 11.9903 24.9147C10.3021 24.8113 8.93192 24.5238 7.87979 24.0521C7.11471 23.7332 6.38801 23.3307 5.71319 22.8522V17.6823C6.66131 18.5766 7.74369 19.3201 8.92184 19.8863C10.0913 20.445 11.0169 20.7534 11.6988 20.8115C12.354 20.872 13.0149 20.8073 13.6454 20.621C14.162 20.477 14.6282 20.1945 14.9927 19.8047C15.2716 19.4724 15.4226 19.0531 15.4189 18.6211C15.4269 18.3553 15.3707 18.0915 15.255 17.8516C15.1392 17.6116 14.9673 17.4025 14.7535 17.2415C14.2263 16.8452 13.6508 16.5161 13.0406 16.262C12.3504 15.96 11.5861 15.6471 10.753 15.3233C9.97031 15.0226 9.21741 14.651 8.50392 14.2131C7.86408 13.8198 7.29301 13.3263 6.81299 12.7519C6.36822 12.2254 6.05461 11.6028 5.89741 10.9343C5.7393 10.293 5.659 9.63535 5.6582 8.97523C5.68984 8.17156 5.85712 7.37879 6.15311 6.62975C6.53369 5.67579 7.17074 4.84305 7.99526 4.22169C8.8861 3.5088 10.1069 3.09793 11.6576 2.98093C12.9189 2.87944 14.1883 2.94348 15.4326 3.1714C15.4154 4.72014 15.7362 6.25432 16.3729 7.66917C15.9202 7.46917 15.4545 7.29919 14.9789 7.16034C14.2295 6.9102 13.4405 6.7968 12.6501 6.82566C12.2087 6.84298 11.7735 6.93501 11.3634 7.09776C11.146 7.19626 10.952 7.33904 10.7942 7.51679C10.6616 7.67441 10.5498 7.84814 10.4615 8.03378C10.3705 8.23944 10.304 8.45496 10.2636 8.67593C10.2146 8.95169 10.2053 9.23293 10.2361 9.51126C10.2718 9.76231 10.3623 10.0026 10.5015 10.2155C10.6406 10.4284 10.825 10.6087 11.0417 10.7439C11.5597 11.1176 12.1354 11.4062 12.7464 11.5982C13.3842 11.8087 14.2091 12.1062 15.2209 12.4907C16.1332 12.8155 17.0028 13.2476 17.8109 13.7777C18.5337 14.2851 19.1169 14.9632 19.5073 15.7505C19.9353 16.5782 20.164 17.4927 20.1755 18.4224Z" fill="#283238"/>
</g>
<defs>
<clipPath id="clip0_199_1599">
<rect width="111.684" height="24.2112" fill="white" transform="translate(5.6582 0.703491)"/>
</clipPath>
</defs>
</svg>
