<svg width="131" height="26" viewBox="0 0 131 26" fill="none" xmlns="http://www.w3.org/2000/svg">
<path fill-rule="evenodd" clip-rule="evenodd" d="M130.794 20.7707V25.453H116.472V0.565199H122.294V20.7707H130.794ZM102.759 0.565199L112.831 25.453H107.297L105.325 20.1199H95.0279L93.0391 25.453H87.6341L97.6743 0.565199H102.759ZM96.6317 15.7868H103.721L100.192 6.26337L96.6317 15.7868ZM78.2835 0.565199H84.0414V25.453H79.2619L66.7357 10.3584V25.453H60.9618V0.565199H65.7734L78.2835 15.6598V0.565199ZM45.9817 5.0412C44.8383 5.02617 43.702 5.21987 42.6296 5.6126C41.6584 5.97344 40.7736 6.53017 40.0314 7.24745C39.2918 7.95797 38.7172 8.81909 38.3473 9.77115C37.947 10.8039 37.751 11.9032 37.7699 13.0091C37.7506 14.1099 37.9467 15.2041 38.3473 16.2312C38.7257 17.1836 39.299 18.0483 40.0314 18.7708C40.7604 19.4929 41.6347 20.0553 42.5975 20.4215C43.6585 20.8153 44.7845 21.0092 45.9175 20.9929C47.0584 20.9941 48.1914 20.8063 49.2696 20.4374C49.6722 20.2974 50.0636 20.1276 50.4404 19.9294V12.6282H55.7492V22.7071C54.311 23.7575 52.6992 24.5523 50.9858 25.0562C49.2359 25.5973 47.414 25.8756 45.5807 25.8816C43.7191 25.901 41.87 25.5781 40.1276 24.9292C38.504 24.3361 37.0157 23.4298 35.749 22.2627C34.5273 21.0994 33.5514 19.7074 32.8781 18.1676C32.1909 16.5339 31.8471 14.7787 31.8677 13.0091C31.865 12.2652 31.9207 11.5223 32.0345 10.787C32.5776 10.388 33.0901 9.94982 33.5678 9.47593C35.4639 7.64462 36.703 5.25007 37.0963 2.65717C38.0381 1.99936 39.0625 1.46579 40.1436 1.06994C41.9098 0.428024 43.7796 0.110664 45.6609 0.133472C47.7222 0.127303 49.7667 0.498616 51.6915 1.22866C52.2517 1.43295 52.7981 1.67259 53.3274 1.94609C53.5102 2.04133 53.847 2.23814 54.3378 2.53337V7.8506C53.5442 7.27108 52.7078 6.75114 51.8358 6.29511C51.2622 6.02426 50.6667 5.80127 50.0555 5.62847C49.403 5.44557 48.7385 5.30768 48.0667 5.21579C47.3771 5.10622 46.6801 5.04786 45.9817 5.0412V5.0412ZM21.6511 12.8345C22.625 13.0497 23.6203 13.1562 24.6182 13.152C25.5776 13.1549 26.5346 13.057 27.4731 12.8599V25.453H21.6511V12.8345ZM17.4329 18.3644C17.415 19.6224 17.0727 20.8549 16.4385 21.9452C15.6954 23.287 14.5328 24.354 13.1249 24.9864C11.4926 25.7538 9.68483 26.0822 7.8835 25.9387C5.91395 25.8181 4.31543 25.4827 3.08794 24.9324C2.19535 24.5603 1.34753 24.0908 0.560249 23.5325V17.501C1.66638 18.5443 2.92917 19.4117 4.30367 20.0723C5.66802 20.7241 6.74796 21.0839 7.54348 21.1516C8.30789 21.2222 9.0789 21.1468 9.81455 20.9294C10.4171 20.7614 10.9611 20.4318 11.3863 19.9771C11.7117 19.5893 11.8878 19.1001 11.8835 18.5962C11.8929 18.2861 11.8273 17.9784 11.6923 17.6984C11.5573 17.4185 11.3567 17.1745 11.1073 16.9867C10.4922 16.5243 9.82082 16.1403 9.10885 15.8439C8.30371 15.4915 7.41196 15.1265 6.44002 14.7487C5.52689 14.398 4.64851 13.9644 3.81609 13.4535C3.06962 12.9947 2.40337 12.419 1.84334 11.7488C1.32445 11.1345 0.958571 10.4082 0.775166 9.6283C0.590709 8.88011 0.497024 8.11283 0.496094 7.34269C0.533001 6.40507 0.728158 5.48018 1.07348 4.6063C1.5175 3.49334 2.26072 2.52181 3.22266 1.79689C4.26197 0.965182 5.6862 0.485837 7.49536 0.349335C8.96691 0.230928 10.4478 0.305647 11.8996 0.571548V0.571548C11.8795 2.37842 12.2537 4.16829 12.9966 5.81894C12.4684 5.58561 11.9251 5.3873 11.3703 5.22532C10.496 4.93348 9.57542 4.80118 8.65335 4.83486C8.1383 4.85506 7.63055 4.96243 7.15213 5.1523C6.89851 5.26721 6.67225 5.4338 6.48813 5.64117C6.33335 5.82506 6.20292 6.02775 6.1 6.24432C5.99372 6.48427 5.91621 6.7357 5.86904 6.9935C5.81188 7.31522 5.80108 7.64333 5.83696 7.96806C5.8786 8.26095 5.98426 8.54134 6.14658 8.78969C6.3089 9.03805 6.52397 9.2484 6.77683 9.40609C7.38119 9.84217 8.05278 10.1788 8.76562 10.4029C9.50981 10.6484 10.4721 10.9954 11.6526 11.4441C12.717 11.823 13.7315 12.3271 14.6743 12.9456C15.5175 13.5375 16.1979 14.3287 16.6534 15.2471C17.1528 16.2128 17.4195 17.2797 17.4329 18.3644V18.3644Z" fill="#F41240"/>
</svg>
