<svg width="91" height="19" viewBox="0 0 91 19" fill="none" xmlns="http://www.w3.org/2000/svg">
<g clip-path="url(#clip0_201_2527)">
<path d="M10.121 5.29541H0V16.0954H2.81701V12.5817H8.21482L10.6776 16.0954H13.832L11.1162 12.5656C11.9597 12.4361 12.5669 12.1284 12.938 11.6426C13.3091 11.1569 13.4946 10.3797 13.4946 9.34339V8.53383C13.4946 7.9185 13.4272 7.43277 13.3091 7.06031C13.191 6.68791 12.9886 6.36407 12.7019 6.07262C12.3982 5.79736 12.0608 5.60306 11.656 5.47352C11.2512 5.36017 10.7451 5.29541 10.121 5.29541ZM9.66558 10.2016H2.81701V7.6756H9.66558C10.0535 7.6756 10.3234 7.74039 10.4584 7.85372C10.5933 7.96706 10.6776 8.17757 10.6776 8.48523V9.39199C10.6776 9.71585 10.5933 9.92631 10.4584 10.0396C10.3234 10.153 10.0535 10.2016 9.66558 10.2016Z" fill="black"/>
<path d="M18.0226 12.9056V5.29541H15.2871V12.8409C15.2871 13.4561 15.3362 13.9581 15.4509 14.3305C15.5656 14.7191 15.7621 15.0429 16.057 15.3182C16.3354 15.6097 16.663 15.804 17.0561 15.9173C17.4493 16.0469 17.9407 16.0954 18.5631 16.0954H25.1151C25.7212 16.0954 26.2126 16.0469 26.6057 15.9173C26.9988 15.804 27.3264 15.6097 27.6213 15.3182C27.8997 15.0429 28.0963 14.7191 28.2109 14.3305C28.3257 13.9581 28.3911 13.4561 28.3911 12.8409V5.29541H25.6556V12.9056C25.6556 13.2295 25.5737 13.44 25.4427 13.5533C25.3117 13.6666 25.0496 13.7152 24.6729 13.7152H19.0054C18.6122 13.7152 18.3502 13.6666 18.2191 13.5533C18.0881 13.44 18.0226 13.2295 18.0226 12.9056Z" fill="black"/>
<path d="M37.7455 16.0954V7.6756H42.9517V5.29541H29.8477V7.6756H35.0537V16.0954H37.7455Z" fill="black"/>
<path d="M47.1437 12.9056V5.29541H44.4082V12.8409C44.4082 13.4561 44.4574 13.9581 44.572 14.3305C44.6867 14.7191 44.8832 15.0429 45.1781 15.3182C45.4565 15.6097 45.7841 15.804 46.1772 15.9173C46.5704 16.0469 47.0618 16.0954 47.6842 16.0954H54.2362C54.8423 16.0954 55.3337 16.0469 55.7268 15.9173C56.1199 15.804 56.4475 15.6097 56.7423 15.3182C57.0208 15.0429 57.2174 14.7191 57.332 14.3305C57.4467 13.9581 57.5122 13.4561 57.5122 12.8409V5.29541H54.7767V12.9056C54.7767 13.2295 54.6948 13.44 54.5638 13.5533C54.4327 13.6666 54.1707 13.7152 53.7939 13.7152H48.1265C47.7333 13.7152 47.4713 13.6666 47.3402 13.5533C47.2092 13.44 47.1437 13.2295 47.1437 12.9056Z" fill="black"/>
<path d="M71.5297 8.43663V8.22617C71.5297 7.22226 71.2674 6.47742 70.7421 6.00786C70.2174 5.53829 69.3811 5.29541 68.266 5.29541H58.9668V16.0954H68.8071C69.9222 16.0954 70.7585 15.8688 71.2838 15.3992C71.8085 14.9296 72.0708 14.1847 72.0708 13.1809V12.9542C72.0708 11.9503 71.8085 11.2379 71.2838 10.8169C71.1852 10.7521 71.0866 10.7035 70.9886 10.6549C70.89 10.6063 70.7421 10.5416 70.5619 10.4768C70.9228 10.2825 71.1687 10.0234 71.3161 9.73198C71.4476 9.44052 71.5297 9.00334 71.5297 8.43663ZM61.7058 9.61865V7.6756H67.8229C68.2167 7.6756 68.4791 7.74039 68.6105 7.85372C68.7414 7.96706 68.8071 8.17757 68.8071 8.48523V8.80908C68.8071 9.13294 68.7414 9.34339 68.6105 9.45672C68.4791 9.57012 68.2167 9.61865 67.8229 9.61865H61.7058ZM61.7058 13.7152V11.7722H68.3805C68.7578 11.7722 69.0202 11.8369 69.1516 11.9503C69.2825 12.0636 69.3647 12.2742 69.3647 12.5817V12.9056C69.3647 13.2295 69.2825 13.44 69.1516 13.5533C69.0202 13.6666 68.7578 13.7152 68.3805 13.7152H61.7058Z" fill="black"/>
<path d="M76.3226 7.6756H85.4539V5.29541H73.5293V16.0954H85.9053V13.7152H76.3226V11.8856H85.2363L85.4539 9.50532H76.3226V7.6756Z" fill="black"/>
<path d="M88.5851 4.75678C89.6378 4.75678 90.4917 3.91022 90.4917 2.86594C90.4917 1.82166 89.6378 0.975098 88.5851 0.975098C87.5317 0.975098 86.6777 1.82166 86.6777 2.86594C86.6777 3.91022 87.5317 4.75678 88.5851 4.75678Z" fill="#F41240"/>
</g>
<defs>
<clipPath id="clip0_201_2527">
<rect width="91" height="18" fill="white" transform="translate(0 0.975098)"/>
</clipPath>
</defs>
</svg>
