<svg width="41" height="41" viewBox="0 0 41 41" fill="none" xmlns="http://www.w3.org/2000/svg">
<circle cx="20.5273" cy="20.9672" r="20" fill="black"/>
<path d="M23.0851 16.6597H13.2109V27.3195H15.9592V23.8514H21.2254L23.6282 27.3195H26.7056L24.056 23.8355C24.8789 23.7077 25.4713 23.404 25.8334 22.9245C26.1954 22.4451 26.3764 21.678 26.3764 20.6551V19.8561C26.3764 19.2488 26.3107 18.7693 26.1954 18.4017C26.0802 18.0341 25.8828 17.7145 25.603 17.4268C25.3067 17.1552 24.9776 16.9634 24.5827 16.8355C24.1877 16.7237 23.6939 16.6597 23.0851 16.6597ZM22.6408 21.5022H15.9592V19.009H22.6408C23.0193 19.009 23.2826 19.073 23.4142 19.1848C23.5458 19.2967 23.6282 19.5045 23.6282 19.8081V20.7031C23.6282 21.0228 23.5458 21.2305 23.4142 21.3423C23.2826 21.4542 23.0193 21.5022 22.6408 21.5022Z" fill="white"/>
<path d="M29.3901 16.1284C30.4172 16.1284 31.2503 15.2928 31.2503 14.2621C31.2503 13.2314 30.4172 12.3958 29.3901 12.3958C28.3624 12.3958 27.5293 13.2314 27.5293 14.2621C27.5293 15.2928 28.3624 16.1284 29.3901 16.1284Z" fill="#F41240"/>
</svg>
